M48
; DRILL file {KiCad 8.0.0} date 2026-08-09T13:43:10+0500
; FORMAT={-:-/ absolute / inch / decimal}
; #@! TF.CreationDate,2026-08-09T13:43:10+05:00
; #@! TF.GenerationSoftware,Kicad,Pcbnew,8.0.0
; #@! TF.FileFunction,Plated,1,2,PTH
FMAT,2
INCH
; #@! TA.AperFunction,Plated,PTH,ComponentDrill
T1C0.0079
; #@! TA.AperFunction,Plated,PTH,ViaDrill
T2C0.0118
; #@! TA.AperFunction,Plated,PTH,ViaDrill
T3C0.0157
; #@! TA.AperFunction,Plated,PTH,ViaDrill
T4C0.0197
; #@! TA.AperFunction,Plated,PTH,ComponentDrill
T5C0.0236
; #@! TA.AperFunction,Plated,PTH,ComponentDrill
T6C0.0300
; #@! TA.AperFunction,Plated,PTH,ComponentDrill
T7C0.0315
; #@! TA.AperFunction,Plated,PTH,ComponentDrill
T8C0.0354
; #@! TA.AperFunction,Plated,PTH,ComponentDrill
T9C0.0394
; #@! TA.AperFunction,Plated,PTH,ComponentDrill
T10C0.0433
; #@! TA.AperFunction,Plated,PTH,ComponentDrill
T11C0.0472
; #@! TA.AperFunction,Plated,PTH,ComponentDrill
T12C0.0492
; #@! TA.AperFunction,Plated,PTH,ComponentDrill
T13C0.0512
; #@! TA.AperFunction,Plated,PTH,ComponentDrill
T14C0.0520
%
G90
G05
T1
X5.1723Y-3.008
X5.1723Y-3.0631
X5.1999Y-2.9804
X5.1999Y-3.0355
X5.1999Y-3.0906
X5.2275Y-3.008
X5.2275Y-3.0631
X5.255Y-2.9804
X5.255Y-3.0355
X5.255Y-3.0906
X5.2826Y-3.008
X5.2826Y-3.0631
T2
X3.5669Y-2.3622
X3.8583Y-4.0866
X4.3228Y-2.1654
X4.3543Y-2.1339
X4.6772Y-2.9213
X4.685Y-3.2992
X4.7165Y-3.252
X4.7244Y-3.0787
X4.7402Y-2.8189
X4.7402Y-3.3386
X4.7559Y-3.5197
X4.7638Y-2.6614
X4.9449Y-3.5591
X5.0079Y-3.5433
X5.063Y-3.5197
X5.1102Y-3.4961
X5.2904Y-3.5679
X5.315Y-3.5433
X5.3937Y-3.5827
X5.497Y-3.6447
X5.5197Y-3.5984
X5.5827Y-3.5984
X5.5906Y-3.6457
X5.6299Y-3.5118
X5.6299Y-3.5433
X5.6299Y-3.5748
X5.6614Y-3.7717
X5.6929Y-3.9764
X5.7165Y-2.748
X5.7402Y-4.8031
X5.748Y-3.4872
X5.8267Y-4.2224
X5.8504Y-4.6772
X5.8661Y-3.9764
X5.874Y-3.7323
X5.8819Y-4.7008
X5.9528Y-3.5197
X5.9528Y-3.5591
X5.9606Y-3.3386
X6.063Y-4.5197
X6.0866Y-4.4803
X6.126Y-4.0236
X6.126Y-4.5197
T3
X4.063Y-4.0866
X4.0866Y-3.7402
X4.1181Y-3.7008
X4.4488Y-2.5984
X4.4567Y-2.3386
X4.6457Y-2.7087
X4.6535Y-2.748
X4.9606Y-3.0079
X5.0157Y-2.5748
X5.0394Y-4.2126
T4
X6.2598Y-3.252
X6.3071Y-3.5118
T6
X4.9854Y-4.3142
X4.9854Y-4.9142
X5.3453Y-4.3142
X5.3453Y-4.9142
T7
X3.7894Y-4.2323
X3.7894Y-4.3307
X3.8386Y-2.9232
X3.8386Y-3.002
X3.8467Y-3.1872
X3.8467Y-3.2659
X3.9469Y-4.2323
X3.9469Y-4.3307
X4.0748Y-2.0327
X4.0748Y-2.3327
X4.1685Y-2.9134
X4.1685Y-3.061
X4.1685Y-3.3957
X4.1709Y-3.2382
X4.2421Y-2.035
X4.2421Y-2.335
X4.4685Y-2.9134
X4.4685Y-3.061
X4.4685Y-3.3957
X4.4709Y-3.2382
X4.5846Y-2.035
X4.5846Y-2.335
X4.7539Y-2.035
X4.7539Y-2.335
X4.9449Y-2.039
X4.9449Y-2.339
X5.2756Y-2.1083
X5.2756Y-2.2067
X5.2835Y-2.4232
X5.2835Y-2.5217
X5.4488Y-2.1083
X5.4488Y-2.2067
X5.4488Y-2.4232
X5.4488Y-2.5217
X5.86Y-2.9528
X5.9388Y-2.9528
X5.9445Y-5.2362
X6.1417Y-2.9449
X6.2205Y-2.9449
X6.2445Y-5.2362
T8
X3.376Y-2.1451
X3.376Y-2.2451
X3.376Y-3.2671
X3.376Y-3.3671
X3.7199Y-2.1451
X3.7199Y-2.2451
X6.0417Y-5.4646
X6.1417Y-5.4646
T9
X3.2874Y-2.5
X3.2874Y-2.6772
X3.2874Y-2.8346
X3.2874Y-3.0118
X3.4744Y-4.168
X3.4744Y-4.3649
X3.5433Y-2.5
X3.5433Y-2.6772
X3.5433Y-2.8346
X3.5433Y-3.0118
X4.1981Y-4.2835
X4.395Y-4.2835
T10
X4.6378Y-4.0409
X4.6378Y-4.4409
X4.8307Y-3.7953
X4.8307Y-4.0394
X4.9307Y-3.7953
X4.9307Y-4.0394
X5.0307Y-3.7953
X5.0307Y-4.0394
X5.1307Y-3.7953
X5.1307Y-4.0394
X5.2307Y-3.7953
X5.2307Y-4.0394
X5.3307Y-3.7953
X5.3307Y-4.0394
X5.4307Y-3.7953
X5.4307Y-4.0394
X5.5307Y-3.7953
X5.5307Y-4.0394
X5.6063Y-4.2118
X5.6063Y-4.3118
X5.6063Y-4.4118
X5.6063Y-4.5118
X5.6063Y-4.6764
X5.6063Y-4.7764
X5.6063Y-4.8764
X5.6063Y-4.9764
X5.8606Y-4.3039
X5.8606Y-4.4039
X5.8606Y-4.5039
X5.8606Y-4.7764
X5.8606Y-4.8764
X5.8606Y-4.9764
X5.9606Y-4.3039
X5.9606Y-4.4039
X5.9606Y-4.5039
X5.9606Y-4.7764
X5.9606Y-4.8764
X5.9606Y-4.9764
X6.215Y-4.3039
X6.215Y-4.4039
X6.215Y-4.5039
X6.215Y-4.7764
X6.215Y-4.8764
X6.215Y-4.9764
X6.315Y-4.3039
X6.315Y-4.4039
X6.315Y-4.5039
X6.315Y-4.7764
X6.315Y-4.8764
X6.315Y-4.9764
T11
X5.874Y-2.2647
X5.874Y-2.4616
T12
X6.6189Y-2.8189
X6.6189Y-3.2913
X6.6189Y-4.685
X6.6191Y-4.0
X6.6191Y-4.4724
X6.6215Y-3.0551
X6.6215Y-3.5276
X6.6215Y-3.7638
X6.6215Y-4.2362
X6.6215Y-4.9449
X6.7189Y-2.8189
X6.7189Y-3.2913
X6.7189Y-4.685
X6.7191Y-4.0
X6.7191Y-4.4724
X6.7215Y-3.0551
X6.7215Y-3.5276
X6.7215Y-3.7638
X6.7215Y-4.2362
X6.7215Y-4.9449
X6.8189Y-2.8189
X6.8189Y-3.2913
X6.8189Y-4.685
X6.8191Y-4.0
X6.8191Y-4.4724
X6.8215Y-3.0551
X6.8215Y-3.5276
X6.8215Y-3.7638
X6.8215Y-4.2362
X6.8215Y-4.9449
T13
X3.4547Y-4.7047
X3.4547Y-4.9016
X3.4646Y-5.1969
X3.4646Y-5.3937
X4.0709Y-5.3701
X4.2677Y-5.3701
X4.5906Y-5.3701
X4.7874Y-5.3701
X5.0945Y-5.3701
X5.2913Y-5.3701
X5.5827Y-5.3701
X5.7795Y-5.3701
X6.5472Y-2.2638
X6.5472Y-2.4606
X6.5591Y-5.2126
X6.5591Y-5.4094
T14
X3.9114Y-4.7559
X4.7972Y-4.7559
T5
G00X3.3656Y-3.56
M15
G01X3.3342Y-3.56
M16
G05
G00X3.3656Y-3.9006
M15
G01X3.3342Y-3.9006
M16
G05
G00X3.5357Y-3.56
M15
G01X3.4924Y-3.56
M16
G05
G00X3.5357Y-3.9006
M15
G01X3.4924Y-3.9006
M16
G05
M30
